<svg width="32" height="24" viewBox="0 0 32 24" xmlns="http://www.w3.org/2000/svg">
<path fill-rule="evenodd" clip-rule="evenodd" d="M16.0531 5.5C17.7534 5.5 19.4183 6.16757 20.6226 7.3973C21.827 8.59189 22.5 10.2081 22.5 11.9297C22.5 15.4784 19.5954 18.3946 16.0177 18.3946C14.955 18.3946 13.8924 18.1486 12.936 17.6216L9.5 18.5L10.421 15.1622C9.88965 14.1784 9.57084 13.0892 9.57084 11.9649C9.53542 8.41622 12.4401 5.5 16.0531 5.5ZM19.0435 13.3483L19.4707 13.5409C19.5484 13.5794 19.5873 13.6179 19.5873 13.6179V13.8876C19.5484 14.0802 19.5096 14.2728 19.4319 14.4269C19.3931 14.5039 19.3154 14.5809 19.2377 14.658C19.1989 14.6965 19.1601 14.7254 19.1212 14.7543C19.0824 14.7832 19.0435 14.8121 19.0047 14.8506L18.927 14.9276C18.8834 14.9709 18.8398 14.9899 18.7893 15.0118C18.7499 15.029 18.7063 15.048 18.6552 15.0817C18.4998 15.1588 18.2668 15.2358 18.0726 15.2358H17.6843C17.626 15.2166 17.558 15.2069 17.4901 15.1973C17.4221 15.1877 17.3542 15.178 17.2959 15.1588C16.2473 14.8891 15.3152 14.3883 14.4997 13.695C14.4489 13.6195 14.3816 13.5604 14.3085 13.4963C14.2698 13.4623 14.2294 13.4268 14.189 13.3868L14.0336 13.2327C13.4122 12.6549 12.9462 12 12.5967 11.2681L12.5578 11.1525C12.4413 10.8829 12.3637 10.5747 12.3637 10.2665C12.3637 9.84279 12.519 9.41905 12.7909 9.07235C12.8297 9.03383 12.8588 8.99531 12.888 8.95679C12.9171 8.91827 12.9462 8.87975 12.985 8.84122C13.0239 8.82196 13.0627 8.79307 13.1016 8.76418C13.1404 8.73529 13.1792 8.7064 13.2181 8.68714L13.2569 8.64862C13.2957 8.64862 13.3346 8.63898 13.3734 8.62935C13.4122 8.61972 13.4511 8.61009 13.4899 8.61009H13.9171C14.0336 8.64861 14.1113 8.68714 14.189 8.8027C14.3055 9.03383 14.7715 10.0739 14.8104 10.2665C14.8492 10.3821 14.8104 10.5362 14.7327 10.6517C14.6939 10.6903 14.6647 10.7384 14.6356 10.7866C14.6065 10.8347 14.5773 10.8829 14.5385 10.9214C14.422 11.037 14.2667 11.2296 14.2667 11.2296C14.2278 11.2681 14.2278 11.3451 14.2278 11.4222C14.2426 11.4516 14.2518 11.4754 14.2596 11.4957C14.2723 11.5286 14.2815 11.5525 14.3055 11.5763L14.3443 11.6533C14.5385 12 14.8104 12.3082 15.0822 12.5778C15.1211 12.6163 15.1696 12.6549 15.2181 12.6934C15.2667 12.7319 15.3152 12.7704 15.3541 12.809C15.6648 13.1171 16.0531 13.3483 16.4803 13.5409L16.6745 13.6179C16.7134 13.6564 16.791 13.695 16.8299 13.695H16.8687C16.9464 13.695 17.024 13.6564 17.0629 13.5794C17.6066 12.963 17.6454 12.9245 17.6454 12.9245C17.7231 12.886 17.8008 12.8475 17.9173 12.8475C17.9367 12.8475 17.9561 12.8571 17.9755 12.8667C17.995 12.8764 18.0144 12.886 18.0338 12.886C18.4222 13.0786 19.0435 13.3483 19.0435 13.3483Z"/>
</svg>
