<svg width="348" height="46" viewBox="0 0 348 46" fill="none" xmlns="http://www.w3.org/2000/svg">
<path d="M0 6.95977V0.178742H2.55286V6.74751C2.55286 7.26139 2.69279 7.65239 2.97266 7.92051C3.25253 8.18862 3.60804 8.32267 4.03919 8.32267C4.45521 8.32267 4.78047 8.18117 5.01495 7.89816C5.24944 7.61515 5.36668 7.20926 5.36668 6.68048V0.178742H7.91954V16.1985H5.36668V9.74144C5.10194 10.0244 4.76156 10.2442 4.34554 10.4006C3.93708 10.5569 3.54753 10.6351 3.17689 10.6351C2.15575 10.6351 1.36909 10.3037 0.816915 9.6409C0.272305 8.97806 0 8.08435 0 6.95977Z" fill="#EFEFEF"/>
<path d="M11.7781 16.1985V0.178742H15.545C16.8082 0.178742 17.7575 0.517607 18.3928 1.19534C19.0358 1.87307 19.3573 2.85615 19.3573 4.14458V6.22246C19.3573 7.51089 19.0358 8.49397 18.3928 9.1717C17.7575 9.84198 16.8082 10.1771 15.545 10.1771H14.331V16.1985H11.7781ZM14.331 7.89816H15.545C15.9686 7.89816 16.2825 7.78272 16.4867 7.55185C16.6909 7.32097 16.7931 6.92998 16.7931 6.37886V3.97701C16.7931 3.42589 16.6909 3.03861 16.4867 2.81519C16.2825 2.58431 15.9686 2.46887 15.545 2.46887H14.331V7.89816Z" fill="#EFEFEF"/>
<path d="M22.5124 16.1985V0.178742H29.4788V2.46887H25.0652V6.93742H28.5712V9.21638H25.0652V13.9084H29.4788V16.1985H22.5124Z" fill="#EFEFEF"/>
<path d="M32.9063 12.3555V10.5905H35.323V12.5119C35.323 13.5695 35.7617 14.0983 36.6391 14.0983C37.0778 14.0983 37.4069 13.9642 37.6262 13.6961C37.8531 13.428 37.9666 12.9588 37.9666 12.2885V11.0261C37.9666 10.2963 37.8342 9.77495 37.5695 9.46216C37.3123 9.14936 36.8887 8.99296 36.2987 8.99296H35.6633V6.70283H36.4349C36.9417 6.70283 37.3237 6.57622 37.5808 6.323C37.838 6.06233 37.9666 5.62665 37.9666 5.01595V4.12224C37.9666 3.43706 37.8531 2.96041 37.6262 2.6923C37.4069 2.42419 37.0778 2.29013 36.6391 2.29013C35.7465 2.29013 35.3003 2.81519 35.3003 3.8653V5.17235H32.9516V3.97701C32.9516 2.68858 33.2693 1.7055 33.9047 1.02777C34.5401 0.342589 35.478 0 36.7185 0C37.959 0 38.9007 0.350036 39.5437 1.05011C40.1942 1.74273 40.5195 2.73326 40.5195 4.0217V4.43504C40.5195 6.14798 39.9257 7.2465 38.7381 7.73059C39.9257 8.23703 40.5195 9.35789 40.5195 11.0932V12.3555C40.5195 13.644 40.1942 14.6382 39.5437 15.3383C38.9007 16.0309 37.959 16.3772 36.7185 16.3772C35.478 16.3772 34.5325 16.0309 33.882 15.3383C33.2315 14.6382 32.9063 13.644 32.9063 12.3555Z" fill="#EFEFEF"/>
<path d="M44.2078 16.1985V0.178742H47.7591L49.6426 11.5512L51.3899 0.178742H54.9412V16.1985H52.5245V4.71432L50.7545 16.1985H48.3378L46.4317 4.87072V16.1985H44.2078Z" fill="#EFEFEF"/>
<path d="M58.7771 16.1985V0.178742H65.7435V2.46887H61.3299V6.93742H64.8358V9.21638H61.3299V13.9084H65.7435V16.1985H58.7771Z" fill="#EFEFEF"/>
<path d="M69.3071 16.1985V0.178742H73.074C74.3372 0.178742 75.2865 0.517607 75.9218 1.19534C76.5648 1.87307 76.8863 2.85615 76.8863 4.14458V6.22246C76.8863 7.51089 76.5648 8.49397 75.9218 9.1717C75.2865 9.84198 74.3372 10.1771 73.074 10.1771H71.86V16.1985H69.3071ZM71.86 7.89816H73.074C73.4976 7.89816 73.8115 7.78272 74.0157 7.55185C74.2199 7.32097 74.322 6.92998 74.322 6.37886V3.97701C74.322 3.42589 74.2199 3.03861 74.0157 2.81519C73.8115 2.58431 73.4976 2.46887 73.074 2.46887H71.86V7.89816Z" fill="#EFEFEF"/>
<path d="M80.0414 16.1985V0.178742H82.5942V7.04914H85.4988V0.178742H88.1084V16.1985H85.4988V9.33927H82.5942V16.1985H80.0414Z" fill="#EFEFEF"/>
<path d="M91.7174 12.3555V4.0217C91.7174 2.74071 92.0539 1.75018 92.7271 1.05011C93.4003 0.350036 94.361 0 95.609 0C96.8571 0 97.814 0.350036 98.4796 1.05011C99.1528 1.75018 99.4894 2.74071 99.4894 4.0217V12.3555C99.4894 13.6365 99.1528 14.6271 98.4796 15.3271C97.814 16.0272 96.8571 16.3772 95.609 16.3772C94.361 16.3772 93.4003 16.0272 92.7271 15.3271C92.0539 14.6271 91.7174 13.6365 91.7174 12.3555ZM94.2816 12.5119C94.2816 13.5695 94.7241 14.0983 95.609 14.0983C96.4865 14.0983 96.9252 13.5695 96.9252 12.5119V3.8653C96.9252 2.81519 96.4865 2.29013 95.609 2.29013C94.7241 2.29013 94.2816 2.81519 94.2816 3.8653V12.5119Z" fill="#EFEFEF"/>
<path d="M103.121 16.1985V0.178742H110.088V2.46887H105.674V6.93742H109.18V9.21638H105.674V13.9084H110.088V16.1985H103.121Z" fill="#EFEFEF"/>
<path d="M118.485 0.178742H121.027L122.411 5.65272L123.205 9.4063L123.807 5.67506L124.975 0.178742H127.642L124.907 12.1209C124.779 12.7316 124.635 13.253 124.476 13.6849C124.317 14.1094 124.109 14.5042 123.852 14.8691C123.595 15.2266 123.285 15.5059 122.922 15.707C122.559 15.908 122.112 16.057 121.583 16.1538C121.061 16.2432 120.448 16.2655 119.745 16.2208V13.9754C120.441 14.0201 120.966 13.953 121.322 13.7743C121.677 13.5956 121.904 13.2306 122.003 12.6795L122.025 12.5343L118.485 0.178742Z" fill="#EFEFEF"/>
<path d="M130.695 16.1985V0.178742H138.762V16.1985H136.152V2.46887H133.247V16.1985H130.695Z" fill="#EFEFEF"/>
<path d="M142.371 12.3555V4.0217C142.371 2.74071 142.707 1.75018 143.38 1.05011C144.054 0.350036 145.014 0 146.262 0C147.51 0 148.467 0.350036 149.133 1.05011C149.806 1.75018 150.143 2.74071 150.143 4.0217V12.3555C150.143 13.6365 149.806 14.6271 149.133 15.3271C148.467 16.0272 147.51 16.3772 146.262 16.3772C145.014 16.3772 144.054 16.0272 143.38 15.3271C142.707 14.6271 142.371 13.6365 142.371 12.3555ZM144.935 12.5119C144.935 13.5695 145.377 14.0983 146.262 14.0983C147.14 14.0983 147.578 13.5695 147.578 12.5119V3.8653C147.578 2.81519 147.14 2.29013 146.262 2.29013C145.377 2.29013 144.935 2.81519 144.935 3.8653V12.5119Z" fill="#EFEFEF"/>
<path d="M153.025 2.46887V0.178742H160.934V2.46887H158.256V16.1985H155.703V2.46887H153.025Z" fill="#EFEFEF"/>
<path d="M164.032 16.1985V0.178742H167.799C169.062 0.178742 170.011 0.517607 170.647 1.19534C171.29 1.87307 171.611 2.85615 171.611 4.14458V6.22246C171.611 7.51089 171.29 8.49397 170.647 9.1717C170.011 9.84198 169.062 10.1771 167.799 10.1771H166.585V16.1985H164.032ZM166.585 7.89816H167.799C168.223 7.89816 168.536 7.78272 168.741 7.55185C168.945 7.32097 169.047 6.92998 169.047 6.37886V3.97701C169.047 3.42589 168.945 3.03861 168.741 2.81519C168.536 2.58431 168.223 2.46887 167.799 2.46887H166.585V7.89816Z" fill="#EFEFEF"/>
<path d="M174.766 16.1985V0.178742H181.733V2.46887H177.319V6.93742H180.825V9.21638H177.319V13.9084H181.733V16.1985H174.766Z" fill="#EFEFEF"/>
<path d="M185.319 16.1985V0.178742H192.478V2.46887H187.872V6.56877H189.358C190.629 6.56877 191.59 6.90763 192.24 7.58536C192.891 8.25565 193.216 9.235 193.216 10.5234V12.2438C193.216 13.5323 192.891 14.5153 192.24 15.1931C191.59 15.8634 190.629 16.1985 189.358 16.1985H185.319ZM187.872 13.9084H189.358C189.789 13.9084 190.115 13.7929 190.334 13.562C190.553 13.3312 190.663 12.9439 190.663 12.4002V10.367C190.663 9.82336 190.553 9.43609 190.334 9.20521C190.115 8.97434 189.789 8.8589 189.358 8.8589H187.872V13.9084Z" fill="#EFEFEF"/>
<path d="M196.189 16.2208V13.9307C196.507 13.9307 196.753 13.9158 196.927 13.886C197.101 13.8562 197.256 13.7855 197.392 13.6738C197.528 13.5546 197.623 13.387 197.676 13.1711C197.729 12.9551 197.763 12.6609 197.778 12.2885L198.198 0.178742H205.414V16.1985H202.816V2.46887H200.592L200.308 12.1545C200.263 13.6142 199.949 14.6568 199.366 15.2824C198.792 15.908 197.865 16.2208 196.587 16.2208H196.189Z" fill="#EFEFEF"/>
<path d="M209.352 16.1985V0.178742H216.318V2.46887H211.905V6.93742H215.411V9.21638H211.905V13.9084H216.318V16.1985H209.352Z" fill="#EFEFEF"/>
<path d="M219.882 16.1985V0.178742H222.435V7.04914H225.339V0.178742H227.949V16.1985H225.339V9.33927H222.435V16.1985H219.882Z" fill="#EFEFEF"/>
<path d="M231.773 16.1985V0.178742H234.054V10.3224L234.984 6.7922L237.072 0.178742H239.886V16.1985H237.583V4.91541L236.539 8.8589L234.394 16.1985H231.773Z" fill="#EFEFEF"/>
<path d="M243.665 16.1985V0.178742H250.631V2.46887H246.218V6.93742H249.724V9.21638H246.218V13.9084H250.631V16.1985H243.665Z" fill="#EFEFEF"/>
<path d="M259.109 16.1985L261.707 0.178742H265.451L268.049 16.1985H265.474L265.031 13.2939H261.889L261.446 16.1985H259.109ZM262.218 11.1155H264.68L263.454 3.01627L262.218 11.1155Z" fill="#EFEFEF"/>
<path d="M270.49 16.2208V13.9307C270.807 13.9307 271.053 13.9158 271.227 13.886C271.401 13.8562 271.556 13.7855 271.692 13.6738C271.829 13.5546 271.923 13.387 271.976 13.1711C272.029 12.9551 272.063 12.6609 272.078 12.2885L272.498 0.178742H279.714V16.1985H277.116V2.46887H274.892L274.608 12.1545C274.563 13.6142 274.249 14.6568 273.667 15.2824C273.092 15.908 272.165 16.2208 270.887 16.2208H270.49Z" fill="#EFEFEF"/>
<path d="M283.652 16.1985V0.178742H286.205V7.16085L289.552 0.178742H292.105L288.554 7.31725L292.105 16.1985H289.484L286.999 9.81964L286.205 11.2831V16.1985H283.652Z" fill="#EFEFEF"/>
<path d="M295.033 12.3555V4.0217C295.033 2.74071 295.37 1.75018 296.043 1.05011C296.716 0.350036 297.677 0 298.925 0C300.173 0 301.13 0.350036 301.795 1.05011C302.468 1.75018 302.805 2.74071 302.805 4.0217V12.3555C302.805 13.6365 302.468 14.6271 301.795 15.3271C301.13 16.0272 300.173 16.3772 298.925 16.3772C297.677 16.3772 296.716 16.0272 296.043 15.3271C295.37 14.6271 295.033 13.6365 295.033 12.3555ZM297.597 12.5119C297.597 13.5695 298.04 14.0983 298.925 14.0983C299.802 14.0983 300.241 13.5695 300.241 12.5119V3.8653C300.241 2.81519 299.802 2.29013 298.925 2.29013C298.04 2.29013 297.597 2.81519 297.597 3.8653V12.5119Z" fill="#EFEFEF"/>
<path d="M306.459 16.1985V0.178742H313.199V2.46887H309.012V16.1985H306.459Z" fill="#EFEFEF"/>
<path d="M316.683 12.3555V4.0217C316.683 2.74071 317.02 1.75018 317.693 1.05011C318.366 0.350036 319.327 0 320.575 0C321.823 0 322.78 0.350036 323.445 1.05011C324.119 1.75018 324.455 2.74071 324.455 4.0217V12.3555C324.455 13.6365 324.119 14.6271 323.445 15.3271C322.78 16.0272 321.823 16.3772 320.575 16.3772C319.327 16.3772 318.366 16.0272 317.693 15.3271C317.02 14.6271 316.683 13.6365 316.683 12.3555ZM319.247 12.5119C319.247 13.5695 319.69 14.0983 320.575 14.0983C321.452 14.0983 321.891 13.5695 321.891 12.5119V3.8653C321.891 2.81519 321.452 2.29013 320.575 2.29013C319.69 2.29013 319.247 2.81519 319.247 3.8653V12.5119Z" fill="#EFEFEF"/>
<path d="M327.361 16.2208V13.9307C327.678 13.9307 327.924 13.9158 328.098 13.886C328.272 13.8562 328.427 13.7855 328.563 13.6738C328.699 13.5546 328.794 13.387 328.847 13.1711C328.9 12.9551 328.934 12.6609 328.949 12.2885L329.369 0.178742H336.585V16.1985H333.987V2.46887H331.763L331.479 12.1545C331.434 13.6142 331.12 14.6568 330.538 15.2824C329.963 15.908 329.036 16.2208 327.758 16.2208H327.361Z" fill="#EFEFEF"/>
<path d="M340.058 16.1985C340.247 15.7665 340.341 15.1186 340.341 14.2547V11.7858C340.341 10.8995 340.47 10.1734 340.727 9.60738C340.984 9.04137 341.419 8.63175 342.032 8.37853C340.92 7.86465 340.364 6.78102 340.364 5.12766V3.8653C340.364 2.6141 340.667 1.68688 341.272 1.08362C341.877 0.480369 342.834 0.178742 344.142 0.178742H348V16.1985H345.447V9.67441H344.562C343.98 9.67441 343.556 9.83081 343.291 10.1436C343.027 10.4564 342.894 10.9815 342.894 11.7188V14.2323C342.894 14.6419 342.879 14.9808 342.849 15.2489C342.826 15.5096 342.804 15.6883 342.781 15.7852C342.758 15.8745 342.717 16.0123 342.656 16.1985H340.058ZM342.917 5.6974C342.917 6.31555 343.046 6.75496 343.303 7.01562C343.56 7.26884 343.942 7.39545 344.449 7.39545H345.447V2.46887H344.222C343.768 2.46887 343.435 2.60293 343.223 2.87104C343.019 3.13171 342.917 3.54877 342.917 4.12224V5.6974Z" fill="#EFEFEF"/>
<path d="M50.6987 43.8439V27.8242H54.5563C55.8649 27.8242 56.8218 28.1258 57.4269 28.7291C58.0396 29.3323 58.3459 30.2595 58.3459 31.5107V32.0805C58.3459 33.7189 57.7937 34.7951 56.6894 35.309C57.9601 35.7931 58.5955 36.9363 58.5955 38.7386V40.0457C58.5955 41.282 58.2665 42.2241 57.6084 42.872C56.9503 43.52 55.9859 43.8439 54.7152 43.8439H50.6987ZM53.2515 41.5538H54.7152C55.1614 41.5538 55.4943 41.4346 55.7136 41.1963C55.933 40.958 56.0427 40.5521 56.0427 39.9786V38.5822C56.0427 37.8523 55.9141 37.3459 55.6569 37.0629C55.4073 36.7799 54.9875 36.6384 54.3975 36.6384H53.2515V41.5538ZM53.2515 34.3483H54.25C54.7568 34.3483 55.1388 34.2216 55.3959 33.9684C55.6531 33.7078 55.7817 33.2721 55.7817 32.6614V31.7677C55.7817 31.1942 55.6796 30.7771 55.4754 30.5165C55.2711 30.2484 54.9421 30.1143 54.4882 30.1143H53.2515V34.3483Z" fill="#EFEFEF"/>
<path d="M62.1137 43.8439V27.8242H65.8806C67.1438 27.8242 68.0931 28.163 68.7284 28.8408C69.3714 29.5185 69.6929 30.5016 69.6929 31.79V33.8679C69.6929 35.1563 69.3714 36.1394 68.7284 36.8171C68.0931 37.4874 67.1438 37.8226 65.8806 37.8226H64.6666V43.8439H62.1137ZM64.6666 35.5436H65.8806C66.3042 35.5436 66.6181 35.4282 66.8223 35.1973C67.0265 34.9664 67.1287 34.5754 67.1287 34.0243V31.6224C67.1287 31.0713 67.0265 30.684 66.8223 30.4606C66.6181 30.2297 66.3042 30.1143 65.8806 30.1143H64.6666V35.5436Z" fill="#EFEFEF"/>
<path d="M72.848 43.8439V27.8242H79.8144V30.1143H75.4008V34.5829H78.9068V36.8618H75.4008V41.5538H79.8144V43.8439H72.848Z" fill="#EFEFEF"/>
<path d="M82.822 46V41.5985H83.8205C84.0323 41.3378 84.1836 41.0511 84.2743 40.7383C84.3651 40.418 84.4218 40.0121 84.4445 39.5206L85.0232 27.8242H92.1825V41.5985H93.2944V46H90.7643V43.8439H85.3068V46H82.822ZM86.2372 41.5985H89.5843V30.1143H87.4172L86.952 39.4759C86.9217 40.0643 86.8499 40.5149 86.7364 40.8277C86.623 41.133 86.4566 41.3899 86.2372 41.5985Z" fill="#EFEFEF"/>
<path d="M96.6992 43.8439V27.8242H98.9797V37.9678L99.9101 34.4376L101.998 27.8242H104.812V43.8439H102.508V32.5608L101.465 36.5043L99.3201 43.8439H96.6992Z" fill="#EFEFEF"/>
<path d="M107.842 30.1143V27.8242H115.75V30.1143H113.072V43.8439H110.52V30.1143H107.842Z" fill="#EFEFEF"/>
<path d="M124.432 43.8439V27.8242H128.289C129.598 27.8242 130.555 28.1258 131.16 28.7291C131.773 29.3323 132.079 30.2595 132.079 31.5107V32.0805C132.079 33.7189 131.527 34.7951 130.422 35.309C131.693 35.7931 132.328 36.9363 132.328 38.7386V40.0457C132.328 41.282 131.999 42.2241 131.341 42.872C130.683 43.52 129.719 43.8439 128.448 43.8439H124.432ZM126.984 41.5538H128.448C128.894 41.5538 129.227 41.4346 129.447 41.1963C129.666 40.958 129.776 40.5521 129.776 39.9786V38.5822C129.776 37.8523 129.647 37.3459 129.39 37.0629C129.14 36.7799 128.72 36.6384 128.13 36.6384H126.984V41.5538ZM126.984 34.3483H127.983C128.49 34.3483 128.872 34.2216 129.129 33.9684C129.386 33.7078 129.515 33.2721 129.515 32.6614V31.7677C129.515 31.1942 129.413 30.7771 129.208 30.5165C129.004 30.2484 128.675 30.1143 128.221 30.1143H126.984V34.3483Z" fill="#EFEFEF"/>
<path d="M135.177 43.8439L137.775 27.8242H141.52L144.118 43.8439H141.542L141.1 40.9394H137.957L137.515 43.8439H135.177ZM138.286 38.7609H140.748L139.523 30.6617L138.286 38.7609Z" fill="#EFEFEF"/>
<path d="M147.284 43.8439V27.8242H149.837V41.5538H152.05V27.8242H154.603V41.5538H156.815V27.8242H159.368V43.8439H147.284Z" fill="#EFEFEF"/>
<path d="M163.192 43.8439V27.8242H170.159V30.1143H165.745V34.5829H169.251V36.8618H165.745V41.5538H170.159V43.8439H163.192Z" fill="#EFEFEF"/>
<path d="M173.7 43.8439V27.8242H177.251L179.135 39.1966L180.882 27.8242H184.433V43.8439H182.016V32.3597L180.246 43.8439H177.83L175.924 32.5162V43.8439H173.7Z" fill="#EFEFEF"/>
<path d="M187.52 27.8242H190.062L191.446 33.2981L192.24 37.0517L192.841 33.3205L194.01 27.8242H196.676L193.942 39.7664C193.813 40.3771 193.67 40.8984 193.511 41.3304C193.352 41.7549 193.144 42.1496 192.887 42.5145C192.63 42.872 192.32 43.1513 191.956 43.3524C191.593 43.5535 191.147 43.7024 190.618 43.7992C190.096 43.8886 189.483 43.911 188.78 43.8663V41.6208C189.475 41.6655 190.001 41.5985 190.357 41.4197C190.712 41.241 190.939 40.8761 191.037 40.3249L191.06 40.1797L187.52 27.8242Z" fill="#EFEFEF"/>
<path d="M205.176 40.001V38.2359H207.593V40.1574C207.593 41.2149 208.032 41.7437 208.909 41.7437C209.348 41.7437 209.677 41.6096 209.896 41.3415C210.123 41.0734 210.237 40.6042 210.237 39.9339V38.6716C210.237 37.9417 210.104 37.4204 209.84 37.1076C209.582 36.7948 209.159 36.6384 208.569 36.6384H207.934V34.3483H208.705C209.212 34.3483 209.594 34.2216 209.851 33.9684C210.108 33.7078 210.237 33.2721 210.237 32.6614V31.7677C210.237 31.0825 210.123 30.6058 209.896 30.3377C209.677 30.0696 209.348 29.9356 208.909 29.9356C208.017 29.9356 207.57 30.4606 207.57 31.5107V32.8178H205.222V31.6224C205.222 30.334 205.54 29.3509 206.175 28.6732C206.81 27.988 207.748 27.6454 208.989 27.6454C210.229 27.6454 211.171 27.9955 211.814 28.6955C212.464 29.3882 212.79 30.3787 212.79 31.6671V32.0805C212.79 33.7934 212.196 34.8919 211.008 35.376C212.196 35.8825 212.79 37.0033 212.79 38.7386V40.001C212.79 41.2894 212.464 42.2837 211.814 42.9837C211.171 43.6764 210.229 44.0227 208.989 44.0227C207.748 44.0227 206.803 43.6764 206.152 42.9837C205.502 42.2837 205.176 41.2894 205.176 40.001Z" fill="#EFEFEF"/>
<path d="M215.945 46V41.5985H216.943C217.155 41.3378 217.306 41.0511 217.397 40.7383C217.488 40.418 217.545 40.0121 217.567 39.5206L218.146 27.8242H225.305V41.5985H226.417V46H223.887V43.8439H218.43V46H215.945ZM219.36 41.5985H222.707V30.1143H220.54L220.075 39.4759C220.044 40.0643 219.973 40.5149 219.859 40.8277C219.746 41.133 219.579 41.3899 219.36 41.5985Z" fill="#EFEFEF"/>
<path d="M229.606 40.001V31.6671C229.606 30.3861 229.943 29.3956 230.616 28.6955C231.289 27.9955 232.25 27.6454 233.498 27.6454C234.746 27.6454 235.703 27.9955 236.369 28.6955C237.042 29.3956 237.378 30.3861 237.378 31.6671V40.001C237.378 41.282 237.042 42.2725 236.369 42.9726C235.703 43.6726 234.746 44.0227 233.498 44.0227C232.25 44.0227 231.289 43.6726 230.616 42.9726C229.943 42.2725 229.606 41.282 229.606 40.001ZM232.171 40.1574C232.171 41.2149 232.613 41.7437 233.498 41.7437C234.375 41.7437 234.814 41.2149 234.814 40.1574V31.5107C234.814 30.4606 234.375 29.9356 233.498 29.9356C232.613 29.9356 232.171 30.4606 232.171 31.5107V40.1574Z" fill="#EFEFEF"/>
<path d="M241.01 43.8439V27.8242H244.777C246.04 27.8242 246.989 28.163 247.625 28.8408C248.268 29.5185 248.589 30.5016 248.589 31.79V33.8679C248.589 35.1563 248.268 36.1394 247.625 36.8171C246.989 37.4874 246.04 37.8226 244.777 37.8226H243.563V43.8439H241.01ZM243.563 35.5436H244.777C245.2 35.5436 245.514 35.4282 245.719 35.1973C245.923 34.9664 246.025 34.5754 246.025 34.0243V31.6224C246.025 31.0713 245.923 30.684 245.719 30.4606C245.514 30.2297 245.2 30.1143 244.777 30.1143H243.563V35.5436Z" fill="#EFEFEF"/>
<path d="M251.529 40.001V31.6671C251.529 30.3861 251.865 29.3956 252.538 28.6955C253.212 27.9955 254.172 27.6454 255.42 27.6454C256.668 27.6454 257.625 27.9955 258.291 28.6955C258.964 29.3956 259.301 30.3861 259.301 31.6671V40.001C259.301 41.282 258.964 42.2725 258.291 42.9726C257.625 43.6726 256.668 44.0227 255.42 44.0227C254.172 44.0227 253.212 43.6726 252.538 42.9726C251.865 42.2725 251.529 41.282 251.529 40.001ZM254.093 40.1574C254.093 41.2149 254.535 41.7437 255.42 41.7437C256.298 41.7437 256.736 41.2149 256.736 40.1574V31.5107C256.736 30.4606 256.298 29.9356 255.42 29.9356C254.535 29.9356 254.093 30.4606 254.093 31.5107V40.1574Z" fill="#EFEFEF"/>
<path d="M262.932 43.8439V27.8242H266.79C268.099 27.8242 269.055 28.1258 269.661 28.7291C270.273 29.3323 270.58 30.2595 270.58 31.5107V32.0805C270.58 33.7189 270.027 34.7951 268.923 35.309C270.194 35.7931 270.829 36.9363 270.829 38.7386V40.0457C270.829 41.282 270.5 42.2241 269.842 42.872C269.184 43.52 268.22 43.8439 266.949 43.8439H262.932ZM265.485 41.5538H266.949C267.395 41.5538 267.728 41.4346 267.947 41.1963C268.167 40.958 268.276 40.5521 268.276 39.9786V38.5822C268.276 37.8523 268.148 37.3459 267.891 37.0629C267.641 36.7799 267.221 36.6384 266.631 36.6384H265.485V41.5538ZM265.485 34.3483H266.484C266.99 34.3483 267.372 34.2216 267.63 33.9684C267.887 33.7078 268.015 33.2721 268.015 32.6614V31.7677C268.015 31.1942 267.913 30.7771 267.709 30.5165C267.505 30.2484 267.176 30.1143 266.722 30.1143H265.485V34.3483Z" fill="#EFEFEF"/>
<path d="M274.347 43.8439V27.8242H276.9V33.8455H278.114C279.377 33.8455 280.327 34.1844 280.962 34.8621C281.605 35.5324 281.927 36.5118 281.927 37.8002V39.8893C281.927 41.1777 281.605 42.1608 280.962 42.8385C280.327 43.5088 279.377 43.8439 278.114 43.8439H274.347ZM276.9 41.5538H278.114C278.538 41.5538 278.852 41.4421 279.056 41.2187C279.26 40.9878 279.362 40.5968 279.362 40.0457V37.6438C279.362 37.0927 279.26 36.7054 279.056 36.482C278.852 36.2511 278.538 36.1357 278.114 36.1357H276.9V41.5538Z" fill="#EFEFEF"/>
<path d="M285.422 43.8439V27.8242H287.975V34.6946H289.881V31.6671C289.881 30.3861 290.214 29.3956 290.879 28.6955C291.553 27.9955 292.513 27.6454 293.761 27.6454C295.009 27.6454 295.966 27.9955 296.632 28.6955C297.305 29.3956 297.642 30.3861 297.642 31.6671V40.001C297.642 41.282 297.305 42.2725 296.632 42.9726C295.966 43.6726 295.009 44.0227 293.761 44.0227C292.513 44.0227 291.553 43.6726 290.879 42.9726C290.214 42.2725 289.881 41.282 289.881 40.001V36.9847H287.975V43.8439H285.422ZM292.434 40.1574C292.434 41.2149 292.876 41.7437 293.761 41.7437C294.646 41.7437 295.089 41.2149 295.089 40.1574V31.5107C295.089 30.4606 294.646 29.9356 293.761 29.9356C292.876 29.9356 292.434 30.4606 292.434 31.5107V40.1574Z" fill="#EFEFEF"/>
</svg>
